<?xml version="1.0" standalone="no"?>
<!DOCTYPE svg PUBLIC "-//W3C//DTD SVG 20010904//EN"
 "http://www.w3.org/TR/2001/REC-SVG-20010904/DTD/svg10.dtd">
<svg version="1.0" xmlns="http://www.w3.org/2000/svg"
 width="474.000000pt" height="266.000000pt" viewBox="0 0 474.000000 266.000000"
 preserveAspectRatio="xMidYMid meet">
<metadata>
Created by potrace 1.16, written by Peter Selinger 2001-2019
</metadata>
<g transform="translate(0.000000,266.000000) scale(0.100000,-0.100000)"
fill="#000000" stroke="none">
<path d="M0 1330 l0 -1330 370 0 369 0 32 31 32 31 -34 -6 c-25 -5 -30 -4 -19
3 8 6 23 11 34 11 14 0 16 3 7 13 -8 11 -6 18 8 31 19 17 19 16 26 -48 l7 -66
628 0 c493 0 630 3 634 13 5 9 7 9 12 0 7 -17 41 -17 47 0 4 9 6 9 6 0 1 -10
266 -13 1291 -13 l1290 0 0 209 c0 115 -4 211 -8 213 -5 2 -11 28 -15 58 -3
30 -3 49 0 43 12 -32 23 -8 23 51 0 61 -1 64 -29 76 -23 9 -28 16 -23 33 5 19
3 20 -11 9 -9 -8 -18 -26 -20 -40 -3 -20 -4 -17 -6 12 -1 30 -4 37 -16 32 -12
-4 -15 1 -13 21 2 22 -1 28 -17 28 -14 0 -19 -6 -17 -20 3 -16 2 -17 -12 -6
-10 9 -16 9 -16 3 0 -6 -7 -9 -15 -6 -11 5 -15 -2 -16 -27 -1 -25 -3 -28 -6
-11 -3 17 -8 20 -17 13 -9 -8 -17 3 -30 44 -9 30 -23 55 -30 55 -8 0 -16 16
-20 38 -10 60 -8 69 10 44 8 -12 12 -27 9 -32 -3 -6 -4 -10 0 -10 3 0 10 11
15 25 7 18 14 23 26 18 13 -5 16 -2 11 9 -4 12 -1 14 14 11 22 -6 26 -23 4
-23 -8 0 -15 -4 -15 -10 0 -5 5 -10 10 -10 15 0 12 -17 -4 -23 -10 -4 -13 -1
-9 9 3 8 -1 14 -11 14 -18 0 -22 -35 -6 -45 6 -3 7 -18 4 -33 l-7 -27 24 20
c13 11 26 21 29 23 2 2 -2 8 -10 13 -12 9 -12 10 3 5 9 -3 17 -1 17 4 0 6 5
10 10 10 6 0 10 -7 10 -15 0 -28 29 -3 33 28 4 29 5 30 12 10 10 -31 20 -29
35 7 7 18 20 30 31 30 10 0 23 9 29 20 6 11 17 20 25 20 10 0 15 11 15 35 0
19 -4 35 -10 35 -5 0 -10 7 -10 15 0 8 5 15 10 15 6 0 10 9 10 19 0 20 -18 31
-51 31 -12 0 -17 4 -14 11 4 6 13 8 21 5 25 -10 44 5 44 36 0 25 -3 29 -22 24
-13 -3 -17 -3 -10 0 17 8 15 54 -2 54 -8 0 -17 -8 -19 -18 -4 -15 -5 -15 -6 0
0 9 8 23 20 31 18 13 20 22 15 63 -3 27 -3 43 0 37 18 -39 24 4 24 161 0 144
-3 175 -15 180 -17 6 -10 65 9 79 8 5 6 10 -4 18 -11 8 -12 12 -3 16 22 8 15
50 -8 56 -12 3 -18 10 -15 16 4 6 13 8 21 4 12 -4 15 5 15 41 0 47 -13 62 -23
26 -8 -29 -22 -24 -21 8 1 39 14 64 30 58 11 -4 14 12 14 79 0 75 -2 84 -20
90 -11 3 -20 11 -20 16 0 6 9 7 20 4 17 -5 20 -2 20 25 l0 32 -42 -8 c-24 -4
-86 -9 -138 -10 -94 -3 -277 -19 -252 -22 6 -1 12 -11 12 -22 0 -12 -6 -20
-12 -18 -7 1 -35 -4 -63 -10 -27 -7 -81 -14 -120 -16 -38 -2 -90 -9 -115 -14
-25 -6 -64 -12 -86 -14 -21 -2 -45 -7 -51 -11 -7 -4 -33 -9 -60 -11 -88 -7
-133 -18 -126 -30 5 -8 2 -7 -8 1 -8 6 -36 14 -64 17 -27 4 -56 7 -62 8 -23 3
-13 18 11 18 14 0 27 4 30 8 3 5 23 7 45 5 24 -2 45 3 53 11 8 7 31 19 52 26
34 11 41 11 51 -3 9 -13 23 -15 63 -10 29 3 52 9 52 13 0 3 20 7 45 9 24 1 78
6 120 10 42 5 102 7 133 4 52 -4 95 8 81 21 -3 3 -51 6 -107 7 -56 1 -100 5
-97 9 6 9 -94 4 -190 -10 -44 -7 -111 -16 -150 -20 -38 -4 -99 -15 -135 -23
-36 -8 -91 -18 -123 -22 -61 -8 -80 -20 -48 -30 12 -3 31 1 45 10 34 22 48 12
31 -22 -18 -34 -34 -43 -60 -33 -13 5 -49 5 -81 1 -69 -10 -90 -8 -87 8 2 6
-2 11 -7 11 -6 0 -10 -7 -10 -15 0 -11 -12 -15 -47 -15 l-48 0 30 20 30 21
-30 -7 c-16 -4 -32 -10 -35 -13 -3 -3 -48 -7 -100 -8 -143 -3 -200 -11 -193
-29 3 -8 1 -14 -5 -14 -6 0 -17 -3 -26 -6 -11 -4 -16 -1 -16 10 0 9 -4 16 -10
16 -5 0 -10 -7 -10 -15 0 -15 -40 -17 -51 -2 -3 4 -26 3 -52 -2 -28 -5 -50 -5
-53 0 -3 5 -11 6 -17 2 -21 -13 -135 -15 -158 -3 l-22 13 24 13 24 13 -26 1
c-14 0 -29 -3 -33 -7 -4 -4 -24 -9 -44 -10 -20 -2 -64 -5 -97 -8 -33 -3 -70
-5 -83 -5 -13 0 -36 -6 -51 -14 -15 -8 -34 -14 -41 -14 -8 1 -37 0 -65 -1
l-50 -2 30 -24 c35 -28 28 -44 -9 -20 -14 9 -31 13 -37 9 -9 -5 -10 -2 -6 9 9
23 -5 28 -42 17 -21 -6 -31 -5 -31 2 0 6 -9 8 -20 5 -11 -3 -20 -2 -20 2 0 4
-14 6 -30 5 -35 -2 -45 8 -31 34 13 24 3 36 -16 21 -7 -7 -28 -9 -48 -6 -24 4
-33 2 -29 -5 5 -7 -6 -8 -32 -4 -22 3 -45 7 -51 8 -7 1 -13 7 -13 15 0 21 -21
15 -27 -7 -3 -11 -13 -20 -23 -20 -10 0 -20 -6 -23 -12 -3 -10 -7 -10 -20 0
-9 8 -14 19 -11 27 4 11 -1 11 -28 1 -18 -6 -39 -15 -45 -19 -8 -5 -13 -4 -13
2 0 6 -11 11 -25 11 -17 0 -25 6 -25 18 0 16 -10 19 -67 23 -39 2 -84 -5 -89
-13 -3 -4 -12 -8 -20 -8 -8 0 -12 4 -9 10 4 6 -2 7 -18 1 -37 -14 -88 -20 -81
-10 3 5 12 9 21 9 9 0 14 3 10 6 -9 10 -78 -6 -72 -16 3 -5 -11 -14 -32 -19
-27 -8 -39 -7 -44 1 -4 6 -14 8 -23 5 -9 -4 -16 -2 -16 3 0 6 5 11 10 11 30 4
115 32 125 42 6 6 3 7 -10 4 -60 -17 -80 -19 -69 -8 12 14 62 25 111 26 17 0
29 3 27 6 -4 7 32 23 76 34 20 5 22 4 10 -5 -13 -10 -13 -11 0 -7 22 5 19 30
-5 44 -24 15 -55 17 -55 4 0 -5 -13 -14 -30 -20 -35 -12 -41 3 -8 20 l23 12
-27 9 c-20 7 -35 5 -60 -8 -18 -10 -40 -17 -50 -16 -9 2 -19 -2 -23 -8 -3 -6
-11 -8 -16 -4 -5 3 -9 2 -8 -3 1 -4 -1 -16 -6 -26 -4 -11 -3 -23 4 -30 13 -13
15 -47 2 -47 -5 0 -11 12 -13 28 -4 34 -38 37 -53 5 -5 -13 -16 -23 -24 -23
-10 0 -11 -3 -2 -14 8 -10 8 -20 1 -37 -10 -23 -10 -23 -6 -1 2 12 0 22 -5 22
-5 0 -12 -14 -16 -31 -4 -22 -9 -27 -17 -19 -7 7 -15 4 -28 -12 l-16 -23 -8
29 c-5 19 -2 31 7 37 8 4 15 27 16 51 2 53 52 152 107 211 45 49 142 97 195
97 38 0 148 -44 177 -71 12 -11 27 -39 34 -62 8 -23 21 -55 29 -72 9 -16 18
-43 21 -60 5 -29 6 -30 55 -27 28 2 64 7 80 11 17 5 55 5 85 1 30 -4 60 -4 66
1 6 5 18 7 27 3 17 -6 32 11 17 21 -19 12 -10 25 14 19 17 -4 27 0 34 13 9 15
15 16 40 7 23 -9 49 -8 108 2 75 13 221 29 488 54 146 14 139 12 152 28 5 8
28 16 50 18 135 14 265 19 303 12 27 -5 47 -4 51 1 3 6 44 9 90 8 108 -3 500
42 500 57 0 7 -18 10 -47 7 -79 -6 -39 12 45 20 42 4 118 13 167 19 50 6 115
12 145 12 56 0 267 25 279 32 4 3 85 7 181 11 96 3 223 8 281 10 59 2 118 10
133 16 25 12 26 15 26 96 l0 83 -1956 0 -1957 0 6 -44 c7 -47 -9 -96 -30 -96
-7 0 -13 5 -13 11 0 5 -5 7 -10 4 -14 -8 -30 38 -30 86 l0 39 -375 0 -375 0 0
-1330z m685 1280 c3 -5 1 -10 -4 -10 -6 0 -11 5 -11 10 0 6 2 10 4 10 3 0 8
-4 11 -10z m-235 -10 c0 -5 -4 -10 -9 -10 -6 0 -13 5 -16 10 -3 6 1 10 9 10 9
0 16 -4 16 -10z m105 -20 c-3 -5 -11 -10 -16 -10 -6 0 -7 5 -4 10 3 6 11 10
16 10 6 0 7 -4 4 -10z m109 -76 c3 -8 2 -12 -4 -9 -6 3 -10 10 -10 16 0 14 7
11 14 -7z m183 -26 c-3 -21 1 -39 10 -50 22 -25 7 -40 -30 -32 -18 4 -38 7
-44 7 -7 0 -13 5 -13 10 0 5 7 7 15 3 11 -4 15 2 15 24 0 20 6 31 20 35 11 3
20 13 20 21 0 8 3 14 6 14 4 0 4 -15 1 -32z m-177 -38 c0 -5 -4 -10 -10 -10
-5 0 -10 5 -10 10 0 6 5 10 10 10 6 0 10 -4 10 -10z m140 -60 c0 -5 -2 -10 -4
-10 -3 0 -8 5 -11 10 -3 6 -1 10 4 10 6 0 11 -4 11 -10z m2610 -20 c-8 -5 -22
-10 -30 -10 -13 0 -13 1 0 10 8 5 22 10 30 10 13 0 13 -1 0 -10z m-2690 -10
c0 -5 -5 -10 -11 -10 -5 0 -7 5 -4 10 3 6 8 10 11 10 2 0 4 -4 4 -10z m136
-27 c-7 -7 -26 7 -26 19 0 6 6 6 15 -2 9 -7 13 -15 11 -17z m-121 -44 c4 -5 5
-13 2 -16 -7 -6 -67 38 -67 49 0 10 56 -18 65 -33z m1048 -1 c-17 -19 -53 -24
-53 -8 0 6 11 16 25 22 14 6 25 16 25 22 0 6 5 4 10 -4 6 -10 4 -20 -7 -32z
m-908 12 c3 -5 2 -10 -4 -10 -5 0 -13 5 -16 10 -3 6 -2 10 4 10 5 0 13 -4 16
-10z m1605 -5 c0 -16 -64 -22 -74 -6 -9 14 5 21 41 21 23 0 33 -5 33 -15z
m-545 -65 c-45 -11 -77 -11 -70 0 3 6 27 9 53 9 42 -1 44 -2 17 -9z m-1145
-46 c0 -9 -5 -12 -12 -8 -27 15 -38 27 -32 35 8 13 44 -9 44 -27z m3230 -14
c0 -7 -13 -7 -38 -1 -2 1 -1 5 3 11 6 10 35 2 35 -10z m410 10 c0 -5 -2 -10
-4 -10 -3 0 -8 5 -11 10 -3 6 -1 10 4 10 6 0 11 -4 11 -10z m-480 -4 c0 -11
-19 -15 -25 -6 -3 5 1 10 9 10 9 0 16 -2 16 -4z m570 -25 c-24 -19 -40 -19
-40 -1 0 7 21 15 55 18 6 1 -1 -7 -15 -17z m-50 -1 c0 -5 -5 -10 -11 -10 -5 0
-7 5 -4 10 3 6 8 10 11 10 2 0 4 -4 4 -10z m-3400 -9 c0 -9 -71 -24 -78 -16
-2 2 11 8 29 14 45 12 49 13 49 2z m2600 -11 c0 -5 -7 -10 -16 -10 -8 0 -12 5
-9 10 3 6 10 10 16 10 5 0 9 -4 9 -10z m690 0 c0 -5 -4 -10 -10 -10 -5 0 -10
5 -10 10 0 6 5 10 10 10 6 0 10 -4 10 -10z m-810 -20 c0 -5 -2 -10 -4 -10 -3
0 -8 5 -11 10 -3 6 -1 10 4 10 6 0 11 -4 11 -10z m-2388 -72 c-7 -7 -30 -12
-52 -12 -28 1 -40 -3 -40 -12 0 -9 -10 -14 -27 -13 -21 1 -23 3 -8 6 11 3 24
11 30 19 9 12 36 18 90 23 15 1 16 -2 7 -11z m183 -8 c3 -5 1 -10 -4 -10 -6 0
-11 5 -11 10 0 6 2 10 4 10 3 0 8 -4 11 -10z m1737 -12 c-7 -7 -12 -8 -12 -2
0 14 12 26 19 19 2 -3 -1 -11 -7 -17z m41 -16 c-18 -5 -27 3 -18 17 4 7 10 7
20 -2 11 -10 11 -13 -2 -15z m-2873 8 c8 -5 11 -12 7 -16 -4 -4 -15 0 -24 9
-18 18 -8 23 17 7z m2680 -6 c0 -2 -7 -4 -15 -4 -8 0 -15 4 -15 10 0 5 7 7 15
4 8 -4 15 -8 15 -10z m91 -7 c-10 -9 -11 -8 -5 6 3 10 9 15 12 12 3 -3 0 -11
-7 -18z m-1656 3 c3 -5 1 -10 -4 -10 -6 0 -11 5 -11 10 0 6 2 10 4 10 3 0 8
-4 11 -10z m1830 1 c3 -5 1 -12 -5 -16 -5 -3 -10 1 -10 9 0 18 6 21 15 7z
m-865 -10 c0 -6 -4 -13 -10 -16 -5 -3 -10 1 -10 9 0 9 5 16 10 16 6 0 10 -4
10 -9z m395 -1 c3 -5 1 -10 -4 -10 -6 0 -11 5 -11 10 0 6 2 10 4 10 3 0 8 -4
11 -10z m1935 -38 c0 -19 -4 -22 -20 -17 -14 5 -20 2 -20 -9 0 -20 -19 -21
-26 -1 -4 8 -12 15 -20 15 -8 0 -11 6 -7 16 5 14 7 14 14 1 8 -14 59 -13 57 2
0 3 0 15 1 26 1 17 3 18 11 5 5 -8 10 -25 10 -38z m-2368 16 c-7 -7 -12 -8
-12 -2 0 6 3 14 7 17 3 4 9 5 12 2 2 -3 -1 -11 -7 -17z m608 12 c0 -5 -2 -10
-4 -10 -3 0 -8 5 -11 10 -3 6 -1 10 4 10 6 0 11 -4 11 -10z m357 4 c-3 -3 -12
-4 -19 -1 -8 3 -5 6 6 6 11 1 17 -2 13 -5z m-1017 -23 c0 -22 -17 -37 -28 -26
-4 4 -2 10 5 12 7 2 9 11 6 19 -3 8 0 14 6 14 6 0 11 -9 11 -19z m-824 -16 c4
-8 10 -12 15 -9 5 3 9 0 9 -5 0 -14 -17 -14 -26 0 -4 8 -9 7 -15 -2 -6 -10 -9
-8 -9 9 0 25 18 30 26 7z m504 5 c0 -5 -7 -10 -15 -10 -8 0 -15 5 -15 10 0 6
7 10 15 10 8 0 15 -4 15 -10z m530 0 c0 -5 -5 -10 -11 -10 -5 0 -7 5 -4 10 3
6 8 10 11 10 2 0 4 -4 4 -10z m-310 -9 c0 -6 -4 -13 -10 -16 -5 -3 -10 1 -10
9 0 9 5 16 10 16 6 0 10 -4 10 -9z m2373 -11 c3 -11 1 -20 -4 -20 -5 0 -9 9
-9 20 0 11 2 20 4 20 2 0 6 -9 9 -20z m-2119 4 c26 -10 18 -21 -14 -22 -30 -1
-41 12 -17 21 6 3 13 6 14 6 1 1 8 -2 17 -5z m-572 -16 c-9 -9 -15 -9 -24 0
-9 9 -7 12 12 12 19 0 21 -3 12 -12z m512 -2 c-3 -8 -12 -12 -20 -9 -8 3 -14
-1 -14 -8 0 -10 -3 -10 -12 -1 -10 10 -10 15 2 22 23 15 50 12 44 -4z m2032
-1 c8 -21 -19 -45 -45 -38 -15 4 -21 1 -21 -11 0 -24 -13 -19 -27 10 -9 20 -9
23 0 16 7 -5 27 -7 45 -5 27 4 33 9 29 24 -6 22 11 26 19 4z m-4265 -8 c-1
-12 -15 -9 -19 4 -3 6 1 10 8 8 6 -3 11 -8 11 -12z m4563 -20 c-3 -9 -10 -17
-15 -17 -11 0 -12 34 -2 44 11 11 24 -9 17 -27z m-450 -19 c-6 -9 -34 -11 -34
-3 0 3 6 12 13 19 12 14 31 0 21 -16z m384 13 c3 -8 -1 -12 -9 -9 -7 2 -15 10
-17 17 -3 8 1 12 9 9 7 -2 15 -10 17 -17z m-463 -10 c3 -5 1 -12 -4 -15 -5 -3
-11 1 -15 9 -6 16 9 21 19 6z m-2916 -47 c17 -14 28 -30 25 -35 -3 -5 -2 -8 3
-7 5 2 19 -7 33 -19 18 -18 20 -23 8 -23 -9 0 -19 -6 -21 -12 -4 -9 -6 -8 -6
3 -1 11 -9 14 -30 11 -16 -2 -31 1 -35 6 -4 7 6 10 24 10 43 -1 48 9 8 17 -41
9 -58 22 -51 41 3 8 0 14 -6 14 -6 0 -11 5 -11 10 0 18 28 11 59 -16z m2824 6
c-5 -20 -15 -25 -26 -14 -9 9 4 34 18 34 8 0 11 -8 8 -20z m227 10 c0 -19 -32
-60 -47 -60 -12 0 -12 2 1 15 8 8 18 24 21 35 7 21 25 28 25 10z m153 -4 c4
-10 0 -14 -14 -13 -20 1 -24 9 -12 20 10 11 20 8 26 -7z m-513 -28 c0 -12 -14
-10 -28 4 -9 9 -12 8 -12 -5 0 -9 -4 -17 -10 -17 -13 0 -13 23 1 37 9 9 16 9
30 0 11 -7 19 -15 19 -19z m-70 -39 c0 -12 5 -16 15 -13 8 4 15 2 15 -4 0 -5
-9 -12 -20 -15 -17 -4 -22 0 -27 24 -5 28 -23 41 -23 17 0 -7 -11 -14 -25 -14
-31 -2 -28 20 3 24 15 2 22 11 22 25 l1 22 19 -24 c11 -13 20 -32 20 -42z
m111 48 c-1 -12 -15 -9 -19 4 -3 6 1 10 8 8 6 -3 11 -8 11 -12z m49 3 c0 -5
-4 -10 -9 -10 -6 0 -13 5 -16 10 -3 6 1 10 9 10 9 0 16 -4 16 -10z m103 -9 c3
-14 0 -17 -14 -14 -20 5 -24 15 -12 26 11 12 21 8 26 -12z m102 8 c4 -6 5 -12
2 -15 -7 -7 -37 7 -37 17 0 13 27 11 35 -2z m-898 -41 c-3 -8 -6 -5 -6 6 -1
11 2 17 5 13 3 -3 4 -12 1 -19z m290 0 c-3 -8 -6 -5 -6 6 -1 11 2 17 5 13 3
-3 4 -12 1 -19z m-103 -31 c2 -9 0 -15 -4 -12 -5 3 -13 -3 -19 -12 -12 -22
-17 -17 -25 29 -7 36 -6 36 18 25 14 -7 27 -20 30 -30z m-239 14 c3 -5 1 -12
-5 -16 -5 -3 -10 1 -10 9 0 18 6 21 15 7z m325 -6 c0 -8 -4 -15 -10 -15 -5 0
-10 7 -10 15 0 8 5 15 10 15 6 0 10 -7 10 -15z m-2210 -5 c0 -5 8 -10 18 -11
14 0 14 -2 -3 -8 -11 -5 -23 -7 -27 -5 -4 3 -10 -1 -14 -7 -4 -8 -3 -9 4 -5 7
4 12 2 12 -4 0 -6 5 -8 10 -5 13 8 13 -5 0 -25 -8 -13 -10 -12 -10 3 0 9 -5
16 -11 15 -7 -2 -18 12 -25 30 -14 32 -14 32 16 32 16 0 30 -4 30 -10z m163 0
c60 -9 201 -70 181 -77 -7 -2 -27 5 -45 16 -19 12 -45 21 -58 21 -14 0 -33 7
-43 16 -14 13 -21 14 -32 5 -8 -7 -17 -8 -20 -3 -6 11 -56 3 -56 -8 0 -4 -13
-10 -30 -12 -16 -3 -30 -1 -30 4 0 4 6 8 14 8 8 0 18 5 22 12 4 6 3 8 -3 5 -6
-4 -16 0 -23 8 -11 13 -7 15 26 15 22 0 65 -4 97 -10z m2001 -30 c-6 -25 -9
-29 -16 -16 -5 10 -5 24 2 37 16 28 22 19 14 -21z m143 8 c-3 -7 -5 -2 -5 12
0 14 2 19 5 13 2 -7 2 -19 0 -25z m793 5 c0 -19 -13 -9 -16 12 -1 8 2 13 7 9
5 -3 9 -12 9 -21z m-1097 -8 c-7 -20 -43 -19 -43 0 0 18 16 20 23 3 3 -8 6 -5
6 5 1 10 5 16 11 12 5 -3 7 -12 3 -20z m267 3 c0 -19 -2 -20 -10 -8 -13 19
-13 30 0 30 6 0 10 -10 10 -22z m90 0 c0 -19 -2 -20 -10 -8 -13 19 -13 30 0
30 6 0 10 -10 10 -22z m30 12 c0 -5 -4 -10 -10 -10 -5 0 -10 5 -10 10 0 6 5
10 10 10 6 0 10 -4 10 -10z m230 -16 c-1 -4 4 -10 10 -14 9 -6 9 -13 1 -26
-10 -18 -10 -18 -11 4 0 12 -4 22 -9 22 -5 0 -7 10 -3 22 5 19 17 11 12 -8z
m401 -17 c-8 -8 -11 -3 -11 19 1 25 2 27 11 11 8 -14 8 -22 0 -30z m-1364 1
c-3 -8 -6 -5 -6 6 -1 11 2 17 5 13 3 -3 4 -12 1 -19z m193 13 c0 -5 -7 -11
-14 -14 -10 -4 -13 -1 -9 9 6 15 23 19 23 5z m185 -11 c-3 -5 -11 -10 -16 -10
-6 0 -7 5 -4 10 3 6 11 10 16 10 6 0 7 -4 4 -10z m525 -2 c0 -4 -7 -8 -15 -8
-8 0 -15 4 -15 8 0 5 7 9 15 9 8 0 15 -4 15 -9z m410 -4 c0 -8 -4 -12 -10 -9
-5 3 -10 10 -10 16 0 5 5 9 10 9 6 0 10 -7 10 -16z m340 6 c0 -5 -4 -10 -10
-10 -5 0 -10 5 -10 10 0 6 5 10 10 10 6 0 10 -4 10 -10z m-1840 -16 c0 -8 -5
-12 -10 -9 -6 4 -8 11 -5 16 9 14 15 11 15 -7z m37 -6 c-3 -8 -6 -5 -6 6 -1
11 2 17 5 13 3 -3 4 -12 1 -19z m1773 -17 c0 -6 -4 -11 -10 -11 -5 0 -10 4
-10 9 0 5 -3 18 -7 28 -6 17 -6 17 10 1 9 -9 17 -21 17 -27z m-1589 -4 c-13
-13 -26 -3 -16 12 3 6 11 8 17 5 6 -4 6 -10 -1 -17z m1469 3 c-6 -11 -13 -20
-16 -20 -2 0 0 9 6 20 6 11 13 20 16 20 2 0 0 -9 -6 -20z m-1960 -27 c0 -7 -4
-13 -10 -13 -5 0 -10 12 -10 28 0 21 2 24 10 12 5 -8 10 -21 10 -27z m365 28
c3 -5 1 -12 -5 -16 -5 -3 -10 1 -10 9 0 18 6 21 15 7z m95 -1 c0 -5 -4 -10
-10 -10 -5 0 -10 5 -10 10 0 6 5 10 10 10 6 0 10 -4 10 -10z m557 -12 c-3 -8
-6 -5 -6 6 -1 11 2 17 5 13 3 -3 4 -12 1 -19z m-1802 -21 c17 -16 23 -26 15
-21 -8 5 -21 9 -29 9 -7 0 -20 9 -27 21 -22 32 5 26 41 -9z m1730 23 c3 -5 1
-10 -4 -10 -6 0 -11 5 -11 10 0 6 2 10 4 10 3 0 8 -4 11 -10z m175 -11 c0 -6
-4 -7 -10 -4 -5 3 -10 11 -10 16 0 6 5 7 10 4 6 -3 10 -11 10 -16z m900 5 c0
-8 -4 -12 -10 -9 -5 3 -10 10 -10 16 0 5 5 9 10 9 6 0 10 -7 10 -16z m-1312
-19 c-3 -3 -9 2 -12 12 -6 14 -5 15 5 6 7 -7 10 -15 7 -18z m881 -13 c-1 -17
-3 -21 -6 -9 -2 9 -8 15 -13 12 -4 -3 -6 4 -3 15 7 28 23 15 22 -18z m-612 6
c-3 -8 -6 -5 -6 6 -1 11 2 17 5 13 3 -3 4 -12 1 -19z m830 0 c-3 -8 -6 -5 -6
6 -1 11 2 17 5 13 3 -3 4 -12 1 -19z m-1882 -17 c0 -13 -6 -26 -14 -29 -9 -3
-11 1 -6 17 4 12 2 21 -4 21 -6 0 -11 4 -11 8 0 4 8 8 18 8 12 0 18 -8 17 -25z
m1295 19 c0 -5 -5 -10 -11 -10 -5 0 -7 5 -4 10 3 6 8 10 11 10 2 0 4 -4 4 -10z
m535 0 c3 -5 1 -10 -4 -10 -6 0 -11 5 -11 10 0 6 2 10 4 10 3 0 8 -4 11 -10z
m-857 -25 c-3 -3 -9 2 -12 12 -6 14 -5 15 5 6 7 -7 10 -15 7 -18z m808 6 c0
-11 -4 -17 -8 -15 -4 3 -8 12 -8 20 0 8 4 14 8 14 4 0 8 -9 8 -19z m-1281 -1
c3 -5 1 -10 -4 -10 -6 0 -11 5 -11 10 0 6 2 10 4 10 3 0 8 -4 11 -10z m-701
-16 c9 -24 2 -26 -12 -4 -7 11 -8 20 -3 20 5 0 12 -7 15 -16z m1501 -4 c3 -5
1 -10 -4 -10 -6 0 -11 5 -11 10 0 6 2 10 4 10 3 0 8 -4 11 -10z m435 6 c0 -11
-19 -15 -25 -6 -3 5 1 10 9 10 9 0 16 -2 16 -4z m-3532 -22 c-11 -11 -23 -14
-35 -9 -15 7 -13 9 12 15 17 4 32 8 35 9 2 0 -3 -6 -12 -15z m1210 4 c-2 -7 5
-12 15 -12 21 2 21 -5 2 -30 -12 -16 -15 -17 -15 -4 0 9 -15 25 -32 37 l-33
21 33 0 c20 0 31 -5 30 -12z m1522 -20 c0 -19 -2 -20 -10 -8 -13 19 -13 30 0
30 6 0 10 -10 10 -22z m-2690 8 c0 -2 -7 -7 -16 -10 -8 -3 -12 -2 -9 4 6 10
25 14 25 6z m-68 -56 c17 -7 7 -8 -36 -5 -71 6 -79 11 -38 26 18 6 32 16 33
22 0 7 4 2 9 -11 5 -12 20 -27 32 -32z m1303 30 c3 -6 -1 -7 -9 -4 -18 7 -21
14 -7 14 6 0 13 -4 16 -10z m48 -19 c2 -9 19 -25 38 -34 24 -12 28 -17 14 -16
-24 0 -78 42 -81 63 -3 20 23 9 29 -13z m71 13 c3 -8 2 -12 -4 -9 -6 3 -10 10
-10 16 0 14 7 11 14 -7z m1425 -37 c1 -5 -3 -5 -9 -2 -5 3 -10 16 -9 28 0 21
1 21 9 2 5 -11 9 -24 9 -28z m261 33 c0 -5 -5 -10 -11 -10 -5 0 -7 5 -4 10 3
6 8 10 11 10 2 0 4 -4 4 -10z m-1810 -57 c6 -7 7 -13 2 -13 -10 0 -42 44 -42
57 0 4 7 -1 15 -12 8 -11 19 -26 25 -32z m157 31 c-3 -3 -12 -4 -19 -1 -8 3
-5 6 6 6 11 1 17 -2 13 -5z m833 -4 c0 -5 -2 -10 -4 -10 -3 0 -8 5 -11 10 -3
6 -1 10 4 10 6 0 11 -4 11 -10z m-2350 -4 c0 -2 -7 -9 -15 -16 -13 -11 -14
-10 -9 4 5 14 24 23 24 12z m1615 -26 c3 -5 -1 -10 -9 -10 -9 0 -16 5 -16 10
0 6 4 10 9 10 6 0 13 -4 16 -10z m1115 -48 c0 -15 -2 -15 -10 -2 -13 20 -13
33 0 25 6 -3 10 -14 10 -23z m-675 8 c3 -6 -1 -7 -9 -4 -18 7 -21 14 -7 14 6
0 13 -4 16 -10z m-301 -52 c4 3 11 0 16 -8 9 -13 10 -13 10 0 0 10 5 7 16 -8
8 -12 22 -22 30 -22 8 0 20 -11 26 -25 6 -14 16 -25 21 -25 6 0 8 -3 4 -6 -3
-4 -25 5 -49 19 -42 25 -48 27 -68 27 -5 0 -7 6 -4 14 3 8 -3 16 -15 19 -11 3
-21 1 -23 -3 -2 -5 -11 -2 -22 5 -28 21 -10 38 23 20 16 -8 32 -11 35 -7z
m2163 -70 c-3 -7 -5 -2 -5 12 0 14 2 19 5 13 2 -7 2 -19 0 -25z m-1982 -4 c9
3 14 2 11 -3 -12 -18 146 -65 229 -68 44 -2 81 -7 83 -13 2 -5 8 -10 13 -10 6
0 7 5 4 10 -3 6 -2 10 4 10 6 0 8 -13 4 -32 -6 -31 -5 -32 10 -16 9 9 17 22
17 29 0 10 3 10 11 2 8 -8 8 -20 0 -46 -6 -18 -9 -43 -5 -53 5 -17 4 -17 -13
2 -10 11 -29 35 -43 53 -20 26 -34 33 -70 36 -25 2 -61 7 -80 11 -19 3 -51 7
-70 8 -46 3 -110 25 -110 38 0 6 -9 8 -19 5 -14 -3 -18 -1 -14 9 3 8 -2 17
-11 20 -9 3 -16 13 -16 20 0 12 4 12 25 -2 14 -9 32 -14 40 -10z m1935 -75 c0
-29 16 -40 26 -16 2 7 14 13 24 14 11 1 18 -2 15 -8 -12 -19 17 -8 41 16 30
30 37 31 30 7 -5 -13 1 -22 19 -30 27 -12 25 -38 -2 -28 -8 3 -11 2 -8 -3 3
-6 -3 -14 -12 -20 -14 -8 -15 -11 -3 -12 8 -1 20 -1 25 0 6 1 2 -5 -8 -13 -12
-9 -15 -16 -7 -21 18 -11 -22 -35 -48 -28 -21 5 -23 2 -20 -23 2 -16 -1 -30
-7 -31 -10 -3 -12 3 -14 45 0 13 -5 20 -11 17 -5 -3 -18 -1 -27 5 -16 9 -15
10 5 5 24 -7 29 4 10 23 -8 8 -8 12 -1 12 6 0 16 -7 23 -15 9 -11 16 -13 24
-5 16 16 26 12 19 -7 -5 -14 -3 -16 7 -6 8 8 10 21 5 40 -5 15 -8 31 -7 36 3
11 -12 9 -25 -4 -6 -6 -9 -18 -6 -25 3 -8 0 -14 -6 -14 -6 0 -11 8 -11 18 0
13 -2 14 -9 4 -5 -9 -17 -11 -36 -6 -18 5 -26 3 -22 -3 4 -6 0 -14 -9 -17 -9
-4 -13 -2 -8 5 4 7 1 10 -7 7 -8 -2 -15 -21 -17 -41 -2 -26 -7 -34 -18 -30
-16 6 -19 33 -4 33 6 0 10 8 10 19 0 13 -7 19 -25 19 -20 0 -23 -3 -14 -14 9
-11 8 -18 -1 -29 -6 -8 -9 -24 -5 -37 5 -18 4 -20 -4 -8 -6 8 -11 30 -11 48 0
38 -21 43 -38 10 -10 -23 -11 -22 -11 5 -1 18 5 30 17 34 19 7 57 45 65 65 3
7 6 -2 6 -19 1 -18 5 -33 11 -33 5 0 8 20 6 44 -3 37 -1 42 10 32 7 -8 10 -23
7 -35 -3 -11 -1 -21 5 -21 6 0 13 -8 16 -17 3 -10 4 -6 2 10 -2 15 1 30 6 33
4 3 6 10 2 15 -8 14 4 41 16 34 5 -3 10 -19 10 -36z m101 27 c-7 -8 -21 -12
-32 -9 -16 5 -18 8 -7 14 7 5 21 9 32 9 15 0 16 -3 7 -14z m-204 -12 c-3 -3
-12 -4 -19 -1 -8 3 -5 6 6 6 11 1 17 -2 13 -5z m-157 -14 c0 -5 -9 -10 -20
-10 -11 0 -20 5 -20 10 0 6 9 10 20 10 11 0 20 -4 20 -10z m-1150 -10 c0 -5
-2 -10 -4 -10 -3 0 -8 5 -11 10 -3 6 -1 10 4 10 6 0 11 -4 11 -10z m124 -26
c3 -8 2 -12 -4 -9 -6 3 -10 10 -10 16 0 14 7 11 14 -7z m86 -10 c0 -8 -5 -12
-10 -9 -6 4 -8 11 -5 16 9 14 15 11 15 -7z m40 -11 c0 -20 -3 -24 -11 -16 -7
7 -9 19 -6 27 10 24 17 19 17 -11z m881 -12 c26 -20 47 -18 66 7 21 25 28 4
10 -27 -9 -16 -17 -41 -17 -55 0 -14 -4 -26 -10 -26 -5 0 -10 10 -10 23 0 12
-5 29 -10 37 -8 12 -12 9 -22 -17 -15 -39 -33 -44 -24 -7 6 22 5 24 -12 15
-11 -6 -22 -8 -25 -5 -3 3 -17 -2 -31 -11 -25 -17 -26 -17 -26 4 0 11 5 22 10
22 20 3 25 4 38 12 8 5 12 2 13 -10 0 -10 3 -13 6 -5 2 6 11 12 19 12 20 0 17
27 -3 39 -10 6 -13 11 -7 11 6 0 22 -8 35 -19z m-1061 -11 c-12 -23 -25 -27
-17 -6 4 10 1 13 -9 9 -7 -3 -14 0 -14 6 0 6 11 11 25 11 23 0 24 -2 15 -20z
m763 -34 c2 -21 6 -25 22 -20 11 4 25 7 30 8 6 0 12 4 15 7 3 4 20 4 38 2 33
-5 39 -19 22 -58 -8 -18 -9 -18 -9 6 -1 22 -6 25 -36 26 -24 1 -35 -3 -35 -14
0 -8 5 -11 10 -8 13 8 13 -5 0 -25 -6 -10 -10 -11 -10 -2 0 6 -7 12 -16 12 -8
0 -13 4 -10 9 4 5 -3 7 -14 4 -13 -4 -20 -14 -20 -32 0 -14 -7 -35 -15 -45
-15 -19 -15 -19 -15 2 0 11 -7 25 -16 30 -17 10 -11 52 7 52 6 0 7 -4 4 -10
-3 -5 -1 -10 5 -10 8 0 9 10 5 29 -5 22 -2 30 11 35 13 5 15 9 6 18 -7 7 -12
19 -12 27 0 27 32 -13 33 -43z m-847 7 c-11 -11 -19 6 -11 24 8 17 8 17 12 0
3 -10 2 -21 -1 -24z m403 30 c-4 -28 2 -45 16 -39 9 3 15 0 15 -10 0 -12 -4
-13 -22 -2 -13 7 -26 12 -30 13 -18 1 -21 18 -4 31 23 16 26 17 25 7z m88 -33
c-2 -31 -15 -38 -35 -18 -9 9 -8 16 6 29 25 26 31 23 29 -11z m-1217 1 c13
-25 13 -51 0 -51 -5 0 -9 3 -8 8 0 4 -2 15 -7 25 -6 15 -10 16 -16 5 -6 -9 -9
-7 -9 10 0 27 25 29 40 3z m127 13 c-8 -8 -106 -9 -114 -1 -3 4 22 7 57 7 35
0 61 -3 57 -6z m-217 -19 c0 -8 -2 -15 -4 -15 -2 0 -6 7 -10 15 -3 8 -1 15 4
15 6 0 10 -7 10 -15z m398 -4 c4 -11 0 -12 -14 -6 -11 4 -39 10 -63 11 -70 6
-62 15 9 12 44 -2 65 -7 68 -17z m702 -1 c-8 -5 -17 -7 -19 -4 -3 3 1 9 9 14
8 5 17 7 19 4 3 -3 -1 -9 -9 -14z m79 -2 c12 -15 11 -18 -3 -18 -10 0 -16 8
-16 22 0 12 1 19 3 17 1 -2 9 -12 16 -21z m661 4 c0 -10 -7 -27 -16 -38 -15
-18 -15 -18 -10 6 3 14 6 31 6 38 0 6 5 12 10 12 6 0 10 -8 10 -18z m-1905 -2
c3 -5 2 -10 -4 -10 -5 0 -13 5 -16 10 -3 6 -2 10 4 10 5 0 13 -4 16 -10z
m1445 -19 c0 -11 -5 -23 -12 -27 -6 -4 -8 -3 -4 4 3 6 2 13 -4 17 -15 9 -12
25 5 25 8 0 15 -9 15 -19z m51 -8 c12 3 20 -2 25 -15 3 -11 3 -22 0 -25 -3 -4
-6 -1 -6 5 0 7 -4 12 -10 12 -5 0 -7 -6 -4 -14 4 -11 0 -13 -14 -9 -20 5 -36
49 -24 68 4 5 8 2 10 -8 3 -13 10 -17 23 -14z m87 -3 c32 -33 42 -37 42 -16 0
8 5 18 11 22 8 4 9 -4 4 -27 -14 -70 -14 -71 -33 -53 -8 9 -28 21 -43 26 -29
10 -44 49 -26 67 14 14 13 15 45 -19z m-1648 4 c0 -9 -5 -14 -12 -12 -18 6
-21 28 -4 28 9 0 16 -7 16 -16z m826 -22 c-14 -14 -16 -14 -16 -1 0 20 23 44
29 28 2 -6 -4 -18 -13 -27z m144 23 c0 -8 -2 -15 -4 -15 -2 0 -6 7 -10 15 -3
8 -1 15 4 15 6 0 10 -7 10 -15z m45 6 c3 -5 1 -12 -5 -16 -5 -3 -10 1 -10 9 0
18 6 21 15 7z m-440 -11 c3 -5 2 -10 -4 -10 -5 0 -13 5 -16 10 -3 6 -2 10 4
10 5 0 13 -4 16 -10z m1965 -11 c0 -5 -9 -9 -20 -9 -19 0 -26 11 -14 23 8 8
34 -3 34 -14z m-2785 0 c11 -16 1 -19 -13 -3 -7 8 -8 14 -3 14 5 0 13 -5 16
-11z m44 -16 c0 -25 -1 -26 -9 -8 -12 27 -12 35 0 35 6 0 10 -12 9 -27z m144
-14 c-23 -8 -29 -3 -15 14 7 8 11 16 9 18 -1 2 4 -2 11 -11 10 -12 9 -16 -5
-21z m1417 37 c0 -3 -4 -8 -10 -11 -5 -3 -10 -1 -10 4 0 6 5 11 10 11 6 0 10
-2 10 -4z m-1500 -31 c0 -16 -6 -25 -16 -25 -11 0 -14 5 -10 16 3 9 6 20 6 25
0 5 5 9 10 9 6 0 10 -11 10 -25z m170 5 c0 -5 -4 -10 -10 -10 -5 0 -10 5 -10
10 0 6 5 10 10 10 6 0 10 -4 10 -10z m2330 0 c8 -5 11 -12 7 -17 -4 -4 -17 -2
-27 5 -17 11 -20 10 -20 -8 0 -21 -15 -27 -25 -10 -3 6 -25 8 -48 5 -38 -5
-36 -3 18 14 73 23 76 23 95 11z m230 0 c0 -5 -16 -12 -35 -16 -19 -3 -35 -10
-35 -15 0 -5 -5 -9 -11 -9 -18 0 -4 24 22 37 29 15 59 17 59 3z m-2929 -47
c-9 -15 -10 -12 -10 17 0 29 1 32 10 18 7 -12 7 -24 0 -35z m1789 32 c7 -9 8
-15 2 -15 -5 0 -12 7 -16 15 -3 8 -4 15 -2 15 2 0 9 -7 16 -15z m730 5 c0 -5
-9 -10 -21 -10 -11 0 -17 5 -14 10 3 6 13 10 21 10 8 0 14 -4 14 -10z m304 -5
c3 -8 1 -15 -3 -15 -5 0 -11 7 -15 15 -3 8 -1 15 3 15 5 0 11 -7 15 -15z
m-2734 -5 c8 13 10 13 10 -1 0 -9 -7 -19 -15 -23 -8 -3 -15 -4 -15 -2 0 3 -3
13 -6 23 -5 15 -4 16 5 3 10 -13 12 -13 21 0z m1855 -20 c3 -5 1 -10 -4 -10
-6 0 -11 5 -11 10 0 6 2 10 4 10 3 0 8 -4 11 -10z m246 -35 c10 -1 21 6 25 17
3 10 12 18 21 18 9 0 13 -6 10 -14 -3 -8 1 -17 9 -20 10 -4 13 -13 9 -26 -4
-11 -2 -20 4 -20 6 0 11 9 11 20 0 22 1 23 24 14 13 -5 14 -9 5 -21 -9 -10 -9
-17 -2 -24 8 -8 13 -5 18 10 3 12 11 21 16 21 6 0 7 -9 4 -21 -5 -14 0 -27 14
-40 28 -26 27 -46 -1 -44 -18 2 -22 8 -21 26 3 23 2 23 -9 4 -18 -32 -46 -46
-45 -22 1 43 -4 58 -20 55 -10 -2 -21 -12 -25 -23 -5 -17 -6 -16 -7 7 -1 14
-4 33 -7 42 -7 19 -54 22 -54 4 0 -23 -18 7 -29 47 l-10 40 20 -24 c11 -14 29
-25 40 -26z m-1 30 c7 -9 8 -15 2 -15 -5 0 -12 7 -16 15 -3 8 -4 15 -2 15 2 0
9 -7 16 -15z m530 5 c0 -5 -4 -10 -10 -10 -5 0 -10 5 -10 10 0 6 5 10 10 10 6
0 10 -4 10 -10z m-417 -15 c-3 -9 -8 -14 -10 -11 -3 3 -2 9 2 15 9 16 15 13 8
-4z m337 -5 c0 -5 -9 -10 -19 -10 -11 0 -23 5 -26 10 -4 6 5 10 19 10 14 0 26
-4 26 -10z m236 -4 c18 -19 18 -23 -5 -29 -13 -3 -21 1 -24 14 -8 30 6 37 29
15z m-321 -36 c7 -24 7 -24 -9 -5 -8 11 -16 27 -16 35 0 20 16 1 25 -30z
m-3721 -120 c100 -67 107 -80 12 -23 -64 39 -176 139 -176 157 0 6 17 -8 38
-31 20 -24 77 -70 126 -103z m3650 95 c3 -8 1 -15 -4 -15 -6 0 -10 7 -10 15 0
8 2 15 4 15 2 0 6 -7 10 -15z m111 -12 c-5 -22 -4 -24 8 -15 11 9 13 6 9 -18
-3 -21 -10 -30 -23 -30 -11 0 -22 7 -25 15 -7 17 -40 20 -50 4 -4 -8 -9 -7
-14 2 -14 22 15 40 45 29 35 -13 35 -13 35 8 0 18 8 32 18 32 2 0 1 -12 -3
-27z m311 12 c-22 -16 -46 -20 -46 -7 0 15 13 22 39 22 25 -1 25 -1 7 -15z
m-510 -62 c-9 -9 -27 39 -20 55 5 13 9 9 16 -17 5 -18 7 -35 4 -38z m39 47
c-3 -5 -11 -10 -16 -10 -6 0 -7 5 -4 10 3 6 11 10 16 10 6 0 7 -4 4 -10z
m-802 -10 c8 0 8 -3 0 -11 -13 -13 -43 -5 -43 12 0 6 7 8 16 5 9 -3 21 -6 27
-6z m827 -25 c1 11 21 -31 26 -53 1 -7 -8 -2 -22 10 -13 13 -24 32 -24 43 0
17 2 17 10 5 5 -8 10 -10 10 -5z m390 -6 c0 -11 -4 -18 -10 -14 -5 3 -7 12 -3
20 7 21 13 19 13 -6z m-307 -20 c-4 -15 -9 -17 -17 -9 -8 8 -7 13 4 20 8 5 16
10 17 10 0 0 -1 -9 -4 -21z m-276 -11 c-3 -8 -6 -5 -6 6 -1 11 2 17 5 13 3 -3
4 -12 1 -19z m143 -3 c5 3 14 -4 20 -15 6 -11 8 -20 5 -20 -10 0 -45 35 -44
45 0 5 3 4 6 -3 2 -6 9 -10 13 -7z m-3946 -10 c-4 -8 -14 -15 -23 -15 -14 1
-13 3 3 15 25 19 27 19 20 0z m4066 -49 c-4 -12 -5 -27 -3 -33 7 -20 -11 -15
-30 7 -23 27 -22 43 3 35 23 -7 26 5 9 38 -9 19 -8 19 9 -2 14 -17 18 -31 12
-45z m100 57 c0 -5 -5 -15 -10 -23 -8 -12 -10 -11 -10 8 0 12 5 22 10 22 6 0
10 -3 10 -7z m-482 -50 c-8 -34 -7 -48 1 -51 6 -2 11 -13 11 -25 -1 -22 -1
-22 -16 -2 -9 11 -13 32 -11 48 2 18 -1 31 -10 34 -7 3 -13 10 -13 15 0 7 5 6
14 -1 11 -9 15 -7 19 9 10 40 14 19 5 -27z m189 15 c-3 -7 -5 -2 -5 12 0 14 2
19 5 13 2 -7 2 -19 0 -25z m-57 12 c0 -5 -5 -10 -11 -10 -5 0 -7 5 -4 10 3 6
8 10 11 10 2 0 4 -4 4 -10z m-323 -22 c-3 -12 -2 -28 2 -37 5 -9 5 -25 1 -36
-5 -15 -8 -9 -13 24 -5 41 -1 71 10 71 3 0 3 -10 0 -22z m43 0 c0 -16 -3 -19
-11 -11 -6 6 -8 16 -5 22 11 17 16 13 16 -11z m-3615 -7 c-3 -6 -11 -11 -16
-11 -5 0 -4 6 3 14 14 16 24 13 13 -3z m4041 -28 c7 -21 11 -39 8 -42 -9 -9
-31 33 -32 62 -1 36 8 29 24 -20z m-343 9 c2 7 3 1 1 -14 -2 -15 3 -46 11 -69
18 -49 19 -62 5 -54 -5 3 -10 13 -10 22 0 9 -9 35 -19 57 -11 23 -22 52 -26
66 l-6 25 20 -23 c13 -15 21 -18 24 -10z m131 13 c3 -8 1 -15 -4 -15 -6 0 -10
7 -10 15 0 8 2 15 4 15 2 0 6 -7 10 -15z m51 -15 c8 -37 21 -46 41 -29 14 11
15 8 8 -27 -3 -21 -8 -41 -10 -43 -7 -8 -34 34 -29 46 2 6 0 13 -6 15 -12 4
-30 68 -19 68 5 0 11 -13 15 -30z m299 -2 c5 -24 9 -29 15 -19 7 10 11 5 16
-18 3 -17 11 -33 16 -36 12 -8 12 -25 0 -25 -5 0 -12 13 -16 30 -4 16 -15 32
-26 35 -10 4 -19 9 -19 13 0 4 -3 17 -6 30 -4 12 -2 22 4 22 5 0 12 -15 16
-32z m71 22 c3 -5 1 -10 -4 -10 -6 0 -11 5 -11 10 0 6 2 10 4 10 3 0 8 -4 11
-10z m-864 -47 c-12 -20 -14 -14 -5 12 4 9 9 14 11 11 3 -2 0 -13 -6 -23z
m262 -32 l-6 -45 -13 44 c-10 34 -10 46 -1 52 20 12 26 -5 20 -51z m355 34
c-3 -3 -9 2 -12 12 -6 14 -5 15 5 6 7 -7 10 -15 7 -18z m292 2 c0 -7 -4 -6
-10 3 -8 12 -10 9 -10 -12 0 -14 6 -28 13 -31 6 -2 9 -8 5 -11 -3 -4 -15 1
-26 12 -11 11 -23 18 -26 15 -3 -4 -6 2 -6 12 0 10 3 16 6 12 4 -3 13 1 21 9
16 15 33 11 33 -9z m-503 -9 c-3 -8 -6 -5 -6 6 -1 11 2 17 5 13 3 -3 4 -12 1
-19z m-423 -33 c6 -27 5 -28 -6 -10 -13 22 -19 61 -8 48 4 -4 10 -21 14 -38z
m483 9 c-9 -9 -27 6 -27 22 0 13 2 13 16 -1 9 -9 14 -18 11 -21z m-390 -6 c-3
-8 -6 -5 -6 6 -1 11 2 17 5 13 3 -3 4 -12 1 -19z m653 -32 c-1 -20 -2 -20 -15
4 -19 33 -19 46 0 30 8 -7 15 -22 15 -34z m27 7 c-3 -10 -5 -4 -5 12 0 17 2
24 5 18 2 -7 2 -21 0 -30z m-873 13 c-3 -8 -13 -17 -22 -21 -13 -5 -13 -2 3
15 21 24 26 25 19 6z m333 -20 c-4 -9 -11 -16 -17 -16 -11 0 -14 33 -3 44 11
10 26 -11 20 -28z m-160 -57 c-3 -10 1 -37 9 -60 9 -24 12 -55 8 -75 -7 -36
-24 -57 -24 -29 0 9 -11 31 -25 49 -14 18 -25 43 -25 54 0 25 17 30 22 7 2 -9
8 -11 15 -7 10 6 10 22 3 66 -5 33 -6 64 -3 70 9 14 26 -52 20 -75z m245 41
c3 -16 1 -30 -4 -30 -4 0 -8 14 -8 30 0 17 2 30 4 30 2 0 6 -13 8 -30z m76
-32 c2 -68 -15 -129 -29 -106 -5 7 -9 24 -9 37 0 24 0 24 16 5 14 -18 15 -16
10 28 -3 27 -8 59 -12 73 -4 18 -2 25 8 25 10 0 14 -17 16 -62z m64 36 c-4
-23 -2 -25 17 -19 18 5 21 3 20 -22 0 -15 -3 -22 -6 -15 -2 6 -9 12 -14 12 -4
0 -6 -7 -2 -16 4 -12 2 -15 -8 -12 -15 5 -24 59 -15 84 9 23 14 16 8 -12z
m235 -11 c-3 -10 -5 -4 -5 12 0 17 2 24 5 18 2 -7 2 -21 0 -30z m346 -12 c3
-24 2 -40 -3 -35 -8 9 -13 44 -11 73 2 25 8 8 14 -38z m38 -13 c-9 -32 -9 -31
-10 17 0 38 2 46 10 33 6 -11 6 -29 0 -50z m-974 30 c-3 -8 -6 -5 -6 6 -1 11
2 17 5 13 3 -3 4 -12 1 -19z m-946 -61 c-6 -6 -14 -7 -18 -2 -5 4 -2 10 5 12
6 3 13 19 14 36 l1 32 4 -34 c3 -18 0 -38 -6 -44z m368 41 c0 -27 -2 -29 -8
-13 -5 11 -6 26 -4 33 8 21 13 13 12 -20z m306 2 c-5 -8 -11 -8 -17 -2 -6 6
-7 16 -3 22 5 8 11 8 17 2 6 -6 7 -16 3 -22z m171 -50 c-1 -32 -4 -62 -8 -66
-9 -8 -13 32 -9 83 1 17 -3 34 -9 38 -5 3 -10 10 -10 16 0 5 8 4 18 -2 14 -9
18 -24 18 -69z m179 70 c3 -5 -3 -10 -14 -10 -12 0 -21 5 -21 10 0 6 6 10 14
10 8 0 18 -4 21 -10z m134 -123 c5 -20 5 -39 1 -42 -9 -6 -20 47 -25 125 l-4
55 10 -50 c6 -27 14 -67 18 -88z m-539 114 c0 -6 -4 -12 -8 -15 -5 -3 -7 -19
-4 -36 2 -18 0 -30 -7 -30 -12 0 -14 32 -5 68 6 21 24 31 24 13z m737 -13 c-3
-8 -6 -5 -6 6 -1 11 2 17 5 13 3 -3 4 -12 1 -19z m68 12 c3 -5 2 -10 -4 -10
-5 0 -13 5 -16 10 -3 6 -2 10 4 10 5 0 13 -4 16 -10z m221 -17 c-10 -10 -19 5
-10 18 6 11 8 11 12 0 2 -7 1 -15 -2 -18z m-3786 7 c0 -5 -2 -10 -4 -10 -3 0
-8 5 -11 10 -3 6 -1 10 4 10 6 0 11 -4 11 -10z m2380 -15 c0 -7 -6 -15 -12
-18 -10 -3 -10 -9 0 -26 6 -11 12 -33 11 -48 0 -28 0 -28 -16 7 -8 19 -19 43
-24 53 -7 12 -5 17 6 17 8 0 15 9 15 21 0 11 5 17 10 14 6 -3 10 -12 10 -20z
m627 3 c-3 -8 -6 -5 -6 6 -1 11 2 17 5 13 3 -3 4 -12 1 -19z m-713 -79 c-4
-22 -2 -39 5 -43 6 -4 10 -17 10 -29 -1 -21 -2 -21 -8 -2 -3 12 -8 -9 -12 -50
-4 -51 -6 -32 -6 75 -1 99 2 136 8 115 4 -16 6 -46 3 -66z m258 6 c-9 -14 -19
45 -13 70 4 14 7 8 12 -20 4 -22 4 -44 1 -50z m100 45 c-6 -41 -18 -38 -19 4
-1 23 3 33 11 30 8 -3 11 -17 8 -34z m261 19 c4 -16 3 -18 -9 -8 -16 13 -19
29 -5 29 5 0 11 -9 14 -21z m253 4 c3 -10 10 -26 15 -37 8 -13 7 -17 -1 -14
-15 5 -42 68 -29 68 5 0 12 -8 15 -17z m81 -20 c-3 -10 -5 -4 -5 12 0 17 2 24
5 18 2 -7 2 -21 0 -30z m523 4 c0 -5 -4 -5 -10 -2 -5 3 -10 14 -10 23 0 15 2
15 10 2 5 -8 10 -19 10 -23z m114 -47 c-3 -2 -7 6 -11 18 -3 12 -9 22 -14 22
-5 0 -4 9 3 20 12 19 13 18 19 -17 4 -21 5 -40 3 -43z m-3724 -2 c0 -4 -12
-11 -27 -15 l-28 -7 30 -6 30 -6 -29 -6 c-22 -4 -30 -2 -33 13 -3 11 -12 19
-19 19 -8 0 -14 5 -14 11 0 6 8 8 18 5 15 -5 15 -5 -1 8 -18 14 -17 14 2 21
12 3 19 11 15 16 -3 5 -10 6 -16 3 -7 -5 -8 -2 -3 5 5 9 17 4 41 -20 19 -18
34 -36 34 -41z m1830 46 c0 -21 -4 -25 -20 -21 -16 4 -20 0 -21 -21 l-1 -27
-7 25 c-6 18 -3 31 12 48 27 29 37 28 37 -4z m17 4 c-3 -8 -6 -5 -6 6 -1 11 2
17 5 13 3 -3 4 -12 1 -19z m413 2 c0 -11 -4 -20 -9 -20 -5 0 -7 9 -4 20 3 11
7 20 9 20 2 0 4 -9 4 -20z m172 8 c10 -8 19 -36 23 -68 l6 -55 -27 44 c-18 29
-23 46 -16 49 17 5 15 22 -3 22 -8 0 -15 5 -15 10 0 14 13 13 32 -2z m248 -3
c0 -8 -2 -15 -4 -15 -2 0 -6 7 -10 15 -3 8 -1 15 4 15 6 0 10 -7 10 -15z m904
-39 c5 -15 9 -16 21 -6 12 10 15 10 15 -2 0 -8 -6 -20 -12 -27 -10 -11 -10
-14 0 -18 6 -3 12 -14 11 -26 0 -15 -2 -17 -6 -7 -3 8 -14 26 -23 40 -10 14
-20 43 -24 65 -5 39 2 31 18 -19z m-1577 22 c-3 -8 -6 -5 -6 6 -1 11 2 17 5
13 3 -3 4 -12 1 -19z m317 -33 c5 -28 4 -36 -3 -25 -6 8 -18 15 -28 15 -10 0
-18 7 -18 15 0 8 6 14 13 13 6 -2 11 0 11 5 -1 4 -1 14 0 22 2 25 18 -3 25
-45z m1203 33 c-3 -8 -6 -5 -6 6 -1 11 2 17 5 13 3 -3 4 -12 1 -19z m-2307 2
c-20 -13 -40 -13 -40 0 0 6 12 10 28 10 21 0 24 -2 12 -10z m1314 -1 c-3 -6
-2 -14 4 -18 6 -4 9 -16 6 -28 -6 -21 -6 -21 -25 -2 -18 18 -18 20 -2 39 19
22 28 27 17 9z m455 -33 c12 -23 21 -49 21 -57 0 -12 2 -12 10 1 8 12 10 10
10 -8 0 -13 -4 -21 -9 -18 -5 3 -11 -1 -15 -9 -11 -31 -21 -13 -21 38 0 37 -5
59 -17 70 -11 12 -18 13 -20 5 -3 -8 -6 -7 -10 3 -4 10 1 15 13 16 12 1 25
-12 38 -41z m399 37 c-9 -2 -19 -14 -21 -26 -4 -18 -5 -17 -6 6 -1 22 3 27 22
26 15 -1 17 -3 5 -6z m272 -47 c0 -5 -7 -3 -15 4 -8 7 -15 22 -15 34 1 20 2
20 15 -4 8 -14 14 -29 15 -34z m-2521 31 c-32 -17 -129 -29 -129 -17 0 5 10
12 23 14 12 3 31 7 42 9 11 3 36 5 55 6 l35 1 -26 -13z m2098 -24 c-3 -10 -5
-4 -5 12 0 17 2 24 5 18 2 -7 2 -21 0 -30z m610 11 c2 -13 1 -15 -4 -4 -3 8
-11 19 -17 23 -7 6 -6 7 4 4 8 -2 16 -12 17 -23z m-3983 6 c-6 -6 -21 -6 -39
-1 -30 9 -30 9 10 10 25 1 36 -2 29 -9z m1866 1 c0 -12 -20 -25 -27 -18 -7 7
6 27 18 27 5 0 9 -4 9 -9z m1321 -22 c-5 -13 -10 -19 -10 -12 -1 15 10 45 15
40 3 -2 0 -15 -5 -28z m-1510 -49 c5 0 9 9 9 20 0 11 4 20 9 20 12 0 1 -41
-14 -57 -15 -14 -36 2 -29 22 3 7 -3 11 -18 9 -13 -1 -27 -3 -32 -3 -4 -1 2
-10 15 -20 22 -18 22 -20 7 -26 -10 -4 -18 -11 -18 -17 0 -5 5 -6 10 -3 6 3
10 -1 10 -9 0 -23 -21 -20 -27 4 -4 15 -11 19 -24 15 -20 -7 -28 18 -9 30 6 3
10 10 10 16 0 12 -47 12 -55 -1 -3 -5 0 -10 8 -10 9 0 17 -13 19 -30 5 -30 -5
-41 -15 -17 -6 16 -55 14 -85 -2 -12 -6 -27 -10 -34 -9 -9 2 -12 -7 -10 -32 4
-37 -6 -38 -13 -2 -5 29 -37 72 -50 68 -5 -2 -9 -10 -7 -20 2 -9 -2 -16 -9
-16 -7 0 -9 -12 -5 -37 5 -34 5 -36 -6 -13 -6 14 -12 29 -12 34 -1 14 -36 16
-36 3 0 -7 -5 -5 -10 3 -6 10 -10 11 -10 3 0 -7 -7 -13 -15 -13 -20 0 -19 -18
5 -65 11 -22 20 -45 20 -52 0 -21 -23 -27 -36 -8 -7 10 -20 15 -29 12 -21 -9
-19 10 7 46 15 20 18 32 10 35 -6 2 -22 21 -34 43 -12 21 -24 39 -27 39 -3 0
-6 11 -6 25 0 21 7 27 35 35 53 15 107 12 114 -5 5 -15 47 -22 45 -7 -3 19 2
26 10 13 7 -11 24 -11 97 -2 49 6 104 13 122 16 17 2 32 0 32 -5 0 -15 50 14
51 30 1 8 6 -2 11 -22 6 -21 14 -38 19 -38z m453 44 c9 -24 2 -26 -12 -4 -7
11 -8 20 -3 20 5 0 12 -7 15 -16z m184 -33 c2 -29 0 -41 -7 -36 -6 3 -11 15
-11 26 0 11 -4 17 -10 14 -11 -7 -14 28 -3 39 15 15 28 -3 31 -43z m517 31 c3
-8 3 -17 0 -20 -5 -6 -35 17 -35 28 0 13 29 7 35 -8z m-2848 2 c-3 -3 -12 -4
-19 -1 -8 3 -5 6 6 6 11 1 17 -2 13 -5z m2008 -5 c11 -17 0 -20 -21 -4 -17 13
-17 14 -2 15 9 0 20 -5 23 -11z m52 -11 c-3 -8 -6 -5 -6 6 -1 11 2 17 5 13 3
-3 4 -12 1 -19z m353 18 c0 -3 -4 -8 -10 -11 -5 -3 -10 -1 -10 4 0 6 5 11 10
11 6 0 10 -2 10 -4z m840 -29 c0 -5 -4 -5 -10 -2 -5 3 -10 14 -10 23 0 15 2
15 10 2 5 -8 10 -19 10 -23z m432 8 c4 -20 3 -23 -8 -14 -16 13 -19 39 -5 39
5 0 11 -11 13 -25z m-3723 11 c-2 -2 -17 -6 -34 -10 -22 -5 -26 -4 -15 4 14 9
59 15 49 6z m1186 -6 c3 -5 1 -10 -4 -10 -6 0 -11 5 -11 10 0 6 2 10 4 10 3 0
8 -4 11 -10z m760 0 c3 -5 2 -10 -4 -10 -5 0 -13 5 -16 10 -3 6 -2 10 4 10 5
0 13 -4 16 -10z m602 -42 c-2 -13 -4 -5 -4 17 -1 22 1 32 4 23 2 -10 2 -28 0
-40z m226 20 c-2 -5 1 -15 7 -23 7 -8 8 -15 3 -15 -15 0 -36 47 -28 60 6 9 9
9 16 -1 4 -7 5 -17 2 -21z m49 -13 c3 -23 -14 -37 -18 -15 -2 8 -6 26 -10 40
-6 23 -5 24 9 10 9 -8 18 -24 19 -35z m156 -22 c-1 -16 5 -39 11 -52 7 -12 10
-25 7 -29 -3 -3 -6 0 -6 7 0 7 -4 10 -9 7 -5 -3 -12 4 -15 17 -11 41 -23 52
-40 38 -9 -8 -16 -9 -16 -3 0 6 -3 18 -6 26 -5 12 -1 16 17 14 19 -3 24 1 22
19 -3 22 -2 22 16 4 11 -11 19 -33 19 -48z m1085 15 c-2 -5 -8 -8 -14 -8 -11
0 -12 43 -2 54 9 8 22 -34 16 -46z m-1563 1 c0 -18 -4 -28 -10 -24 -5 3 -10
20 -10 36 0 18 4 28 10 24 6 -3 10 -20 10 -36z m-350 15 c0 -8 -5 -12 -10 -9
-6 4 -8 11 -5 16 9 14 15 11 15 -7z m285 7 c-3 -6 2 -14 12 -19 15 -9 15 -11
1 -26 -15 -14 -17 -13 -22 10 -6 23 -1 44 10 44 3 0 3 -4 -1 -9z m725 -6 c0
-8 -4 -15 -10 -15 -5 0 -7 7 -4 15 4 8 8 15 10 15 2 0 4 -7 4 -15z m364 -33
c-4 -9 -6 -23 -5 -31 1 -7 -2 -10 -7 -7 -6 3 -12 0 -15 -6 -2 -7 -8 -10 -12
-6 -4 4 0 17 9 30 9 12 16 34 16 48 1 22 2 23 11 7 6 -10 7 -26 3 -35z m148
-14 c-15 -15 -16 -80 -1 -95 7 -7 7 -13 1 -17 -12 -7 -18 10 -27 83 -5 36 -10
49 -16 40 -7 -11 -9 -11 -9 3 0 9 3 23 6 32 5 13 10 11 32 -9 21 -19 24 -27
14 -37z m216 49 c6 -5 12 -20 12 -33 0 -13 4 -24 9 -24 10 0 8 -47 -3 -57 -12
-13 -18 7 -6 22 8 10 9 15 1 15 -6 0 -11 9 -11 19 0 25 -17 37 -22 15 -2 -8
-8 0 -13 19 -9 28 -8 34 5 34 8 0 21 -4 28 -10z m-2085 -14 c14 -50 18 -95 8
-88 -6 3 -11 17 -11 30 0 13 -4 35 -10 49 -5 15 -6 26 0 26 5 0 11 -8 13 -17z
m404 -5 c-3 -8 -6 -5 -6 6 -1 11 2 17 5 13 3 -3 4 -12 1 -19z m-2230 6 c-3 -3
-12 -4 -19 -1 -8 3 -5 6 6 6 11 1 17 -2 13 -5z m306 -20 c4 -8 17 -14 27 -14
11 0 20 -6 20 -14 0 -11 -17 -13 -77 -10 -43 1 -86 3 -95 3 -10 1 -18 9 -18
18 0 9 3 13 7 10 3 -4 12 2 20 13 12 16 22 19 61 14 26 -3 51 -12 55 -20z
m1670 6 c3 -11 1 -20 -4 -20 -5 0 -9 9 -9 20 0 11 2 20 4 20 2 0 6 -9 9 -20z
m1084 -2 c-3 -8 -6 -5 -6 6 -1 11 2 17 5 13 3 -3 4 -12 1 -19z m218 1 c9 -26
-2 -72 -15 -64 -13 8 -13 85 -1 85 5 0 13 -9 16 -21z m838 1 c3 -11 1 -20 -4
-20 -5 0 -9 9 -9 20 0 11 2 20 4 20 2 0 6 -9 9 -20z m-1413 -25 c0 -5 -5 -3
-10 5 -5 8 -10 20 -10 25 0 6 5 3 10 -5 5 -8 10 -19 10 -25z m47 13 c-3 -8 -6
-5 -6 6 -1 11 2 17 5 13 3 -3 4 -12 1 -19z m670 -30 c-2 -13 -4 -5 -4 17 -1
22 1 32 4 23 2 -10 2 -28 0 -40z m386 -15 c4 -49 2 -63 -9 -63 -9 0 -12 13
-10 48 2 26 4 56 5 66 2 36 9 11 14 -51z m-891 32 c3 -14 1 -25 -3 -25 -5 0
-9 4 -9 9 0 5 -3 16 -6 25 -3 9 -2 16 4 16 5 0 12 -11 14 -25z m115 -7 c-3 -7
-5 -2 -5 12 0 14 2 19 5 13 2 -7 2 -19 0 -25z m574 3 c5 9 9 10 9 2 0 -6 -4
-15 -10 -18 -14 -9 -13 -27 6 -70 12 -29 18 -35 25 -24 7 11 9 8 9 -10 0 -16
-4 -21 -14 -18 -9 4 -17 -1 -19 -11 -3 -9 -6 -1 -7 18 -1 29 -3 32 -10 15 -5
-11 -9 -14 -9 -7 -1 6 -7 12 -15 12 -7 0 -16 10 -19 23 -2 12 -7 29 -11 37 -4
9 1 20 13 27 17 11 18 9 13 -33 -3 -29 -1 -44 7 -44 7 0 12 25 12 68 1 37 4
56 6 43 4 -19 7 -21 14 -10z m156 -38 c-2 -16 -4 -5 -4 22 0 28 2 40 4 28 2
-13 2 -35 0 -50z m393 25 c0 -9 -3 -19 -8 -21 -4 -3 -7 10 -8 29 0 22 2 30 7
22 5 -7 9 -21 9 -30z m-2028 0 c-8 -8 -9 -4 -5 13 4 13 8 18 11 10 2 -7 -1
-18 -6 -23z m478 30 c-1 -12 -29 -80 -30 -72 -1 26 13 74 21 74 5 0 9 -1 9 -2z
m1407 -20 c-3 -8 -6 -5 -6 6 -1 11 2 17 5 13 3 -3 4 -12 1 -19z m-2256 -25
c-9 -16 -10 -14 -11 12 0 21 3 26 11 18 8 -8 8 -16 0 -30z m476 0 c-3 -10 -5
-4 -5 12 0 17 2 24 5 18 2 -7 2 -21 0 -30z m321 12 c-3 -3 -9 2 -12 12 -6 14
-5 15 5 6 7 -7 10 -15 7 -18z m-148 0 c5 14 7 7 6 -22 -1 -40 -16 -52 -16 -12
0 10 -4 19 -10 19 -5 0 -6 8 -2 18 6 15 7 15 11 -3 l4 -20 7 20z m981 -12
c-12 -20 -14 -14 -5 12 4 9 9 14 11 11 3 -2 0 -13 -6 -23z m-1838 6 c-6 -6 -9
-19 -6 -28 3 -11 1 -11 -7 3 -10 15 -9 20 1 27 19 12 25 11 12 -2z m87 -26 c0
-18 -10 -16 -26 5 -13 16 -14 16 -8 0 3 -10 1 -18 -5 -18 -6 0 -11 11 -11 25
0 23 2 24 25 13 14 -6 25 -17 25 -25z m30 23 c0 -8 -4 -18 -10 -21 -5 -3 -10
3 -10 14 0 12 5 21 10 21 6 0 10 -6 10 -14z m435 5 c3 -5 2 -12 -3 -15 -5 -3
-9 1 -9 9 0 17 3 19 12 6z m430 -1 c-3 -5 -11 -10 -16 -10 -6 0 -7 5 -4 10 3
6 11 10 16 10 6 0 7 -4 4 -10z m295 -23 c0 -5 -4 -5 -10 -2 -5 3 -10 14 -10
23 0 15 2 15 10 2 5 -8 10 -19 10 -23z m466 -39 c-9 -5 -14 -13 -12 -17 3 -4
-1 -8 -9 -8 -9 0 -15 10 -15 23 0 15 6 21 18 20 12 -1 18 8 22 29 l4 30 4 -34
c2 -24 -1 -37 -12 -43z m50 63 c-4 -5 -2 -20 2 -33 5 -13 3 -42 -3 -68 l-12
-45 -5 40 c-6 50 2 115 14 115 5 0 7 -4 4 -9z m125 -88 c-10 -17 -10 -17 -11
0 0 9 -4 18 -10 18 -5 1 -16 2 -22 3 -7 0 -14 12 -15 26 -1 15 0 18 3 7 7 -22
24 -12 24 13 0 10 6 20 13 23 17 5 31 -67 18 -90z m-717 28 c-3 -3 -9 1 -14 8
-6 11 -9 8 -13 -10 -4 -22 -4 -22 -6 4 0 15 5 34 12 41 10 11 13 9 19 -12 4
-14 5 -28 2 -31z m747 16 c-8 -8 -11 -3 -11 19 1 25 2 27 11 11 8 -14 8 -22 0
-30z m206 21 c-3 -8 -6 -5 -6 6 -1 11 2 17 5 13 3 -3 4 -12 1 -19z m37 -1 c3
-13 1 -36 -3 -52 -7 -23 -9 -25 -10 -9 -1 12 -4 36 -7 53 -7 36 11 44 20 8z
m133 1 c-3 -8 -6 -5 -6 6 -1 11 2 17 5 13 3 -3 4 -12 1 -19z m-1880 -10 c-3
-8 -6 -5 -6 6 -1 11 2 17 5 13 3 -3 4 -12 1 -19z m680 0 c-3 -8 -6 -5 -6 6 -1
11 2 17 5 13 3 -3 4 -12 1 -19z m963 1 c0 -6 -4 -7 -10 -4 -5 3 -10 11 -10 16
0 6 5 7 10 4 6 -3 10 -11 10 -16z m-119 -62 c-6 -6 -8 -3 -6 9 2 11 5 30 6 44
2 19 3 17 6 -9 3 -18 0 -38 -6 -44z m341 61 c3 -7 1 -24 -3 -38 -6 -23 -7 -23
-8 -3 -1 12 -4 28 -7 37 -3 9 -2 16 4 16 5 0 12 -6 14 -12z m-3627 -8 c6 -10
-5 -11 -90 -11 -69 0 -67 4 5 11 36 4 68 7 72 8 4 1 10 -2 13 -8z m115 -18 c0
-20 -3 -23 -12 -14 -7 7 -29 12 -50 12 -21 0 -38 4 -38 9 0 10 18 15 68 18 28
1 32 -1 32 -25z m1790 24 c0 -3 -4 -8 -10 -11 -5 -3 -10 -1 -10 4 0 6 5 11 10
11 6 0 10 -2 10 -4z m247 -18 c-3 -8 -6 -5 -6 6 -1 11 2 17 5 13 3 -3 4 -12 1
-19z m153 1 c0 -5 -4 -9 -10 -9 -5 0 -10 7 -10 16 0 8 5 12 10 9 6 -3 10 -10
10 -16z m692 -1 c-7 -7 -12 -8 -12 -2 0 14 12 26 19 19 2 -3 -1 -11 -7 -17z
m-1552 -23 c0 -5 -5 -3 -10 5 -5 8 -10 20 -10 25 0 6 5 3 10 -5 5 -8 10 -19
10 -25z m137 -12 c-3 -10 -5 -2 -5 17 0 19 2 27 5 18 2 -10 2 -26 0 -35z
m1332 -15 c-1 -35 -3 -55 -6 -45 -2 9 -8 17 -13 17 -13 0 -20 30 -13 58 l7 27
7 -25 7 -25 1 28 c1 15 3 27 6 27 3 0 4 -28 4 -62z m-1132 30 c-3 -8 -6 -5 -6
6 -1 11 2 17 5 13 3 -3 4 -12 1 -19z m221 -3 c-3 -3 -9 2 -12 12 -6 14 -5 15
5 6 7 -7 10 -15 7 -18z m223 2 c-10 -9 -11 -8 -5 6 3 10 9 15 12 12 3 -3 0
-11 -7 -18z m933 -25 c4 -29 3 -41 -4 -37 -5 3 -10 25 -10 47 0 51 5 47 14
-10z m286 -6 c-1 -16 -5 -12 -15 13 -19 42 -19 52 0 27 8 -11 15 -29 15 -40z
m-805 34 c3 -5 1 -10 -4 -10 -6 0 -11 5 -11 10 0 6 2 10 4 10 3 0 8 -4 11 -10z
m1055 -18 c0 -15 -2 -15 -10 -2 -13 20 -13 33 0 25 6 -3 10 -14 10 -23z m-687
-2 c-3 -12 -8 -19 -11 -16 -5 6 5 36 12 36 2 0 2 -9 -1 -20z m-3256 4 c-3 -3
-12 -4 -19 -1 -8 3 -5 6 6 6 11 1 17 -2 13 -5z m303 -9 c0 -8 -7 -15 -16 -15
-14 0 -14 3 -4 15 7 8 14 15 16 15 2 0 4 -7 4 -15z m58 0 c1 -1 0 -9 -4 -18
-5 -14 -7 -14 -25 1 -26 22 -24 35 4 26 12 -3 23 -8 25 -9z m1359 -17 c-3 -7
-5 -2 -5 12 0 14 2 19 5 13 2 -7 2 -19 0 -25z m872 -13 c0 -5 -4 -3 -9 5 -5 8
-9 22 -9 30 0 16 17 -16 18 -35z m240 -5 l-1 -25 -8 25 c-4 14 -8 32 -9 40 -1
13 0 13 9 0 5 -8 9 -26 9 -40z m386 40 c3 -5 4 -10 1 -10 -2 0 -12 -3 -20 -6
-12 -5 -15 -2 -10 10 7 18 20 21 29 6z m222 -12 c-3 -8 -6 -5 -6 6 -1 11 2 17
5 13 3 -3 4 -12 1 -19z m-1080 -10 c-3 -8 -6 -5 -6 6 -1 11 2 17 5 13 3 -3 4
-12 1 -19z m560 -10 c-3 -7 -5 -2 -5 12 0 14 2 19 5 13 2 -7 2 -19 0 -25z
m580 10 c-3 -8 -6 -5 -6 6 -1 11 2 17 5 13 3 -3 4 -12 1 -19z m413 -4 c0 -12
-2 -12 -14 -2 -8 7 -12 16 -9 21 7 11 23 -2 23 -19z m-603 -10 c2 -10 0 -14
-3 -7 -3 7 -12 9 -20 6 -14 -5 -19 8 -7 21 11 11 28 1 30 -20z m250 -16 c-3
-7 -5 -2 -5 12 0 14 2 19 5 13 2 -7 2 -19 0 -25z m-800 0 c-3 -8 -6 -5 -6 6
-1 11 2 17 5 13 3 -3 4 -12 1 -19z m820 -10 c-3 -8 -6 -5 -6 6 -1 11 2 17 5
13 3 -3 4 -12 1 -19z m-2023 -4 c3 -8 2 -12 -4 -9 -6 3 -10 10 -10 16 0 14 7
11 14 -7z m1007 -21 c-9 -16 -10 -14 -11 12 0 21 3 26 11 18 8 -8 8 -16 0 -30z
m66 15 c-3 -8 -6 -5 -6 6 -1 11 2 17 5 13 3 -3 4 -12 1 -19z m663 6 c0 -8 -5
-12 -10 -9 -6 4 -8 11 -5 16 9 14 15 11 15 -7z m70 -31 c-11 -17 -11 -17 -6 0
3 10 7 26 7 35 1 15 2 15 6 0 2 -10 -1 -25 -7 -35z m-1981 30 c-3 -19 27 -73
40 -73 11 0 9 -5 -7 -20 -39 -37 -50 -27 -53 48 -1 18 -4 20 -15 11 -11 -9
-14 -8 -14 5 0 9 10 21 23 26 29 11 27 11 26 3z m396 -34 c10 -46 -1 -46 -13
1 -5 22 -6 38 -2 35 5 -3 11 -19 15 -36z m932 19 c-3 -8 -6 -5 -6 6 -1 11 2
17 5 13 3 -3 4 -12 1 -19z m43 -30 c0 -51 -6 -47 -15 10 -4 30 -3 42 4 37 6
-3 11 -25 11 -47z m736 32 c8 0 14 -7 14 -15 0 -8 -4 -15 -8 -15 -14 0 -32 23
-31 40 0 10 2 11 6 3 2 -7 11 -13 19 -13z m121 -2 c-3 -8 -6 -5 -6 6 -1 11 2
17 5 13 3 -3 4 -12 1 -19z m-1477 2 c0 -5 -4 -10 -10 -10 -5 0 -10 5 -10 10 0
6 5 10 10 10 6 0 10 -4 10 -10z m530 6 c0 -3 -4 -8 -10 -11 -5 -3 -10 -1 -10
4 0 6 5 11 10 11 6 0 10 -2 10 -4z m-202 -31 c-3 -3 -9 2 -12 12 -6 14 -5 15
5 6 7 -7 10 -15 7 -18z m1209 -7 c-3 -8 -6 -5 -6 6 -1 11 2 17 5 13 3 -3 4
-12 1 -19z m-1427 -14 c0 -8 -4 -12 -10 -9 -5 3 -10 10 -10 16 0 5 5 9 10 9 6
0 10 -7 10 -16z m767 -16 c-3 -7 -5 -2 -5 12 0 14 2 19 5 13 2 -7 2 -19 0 -25z
m40 0 c-3 -7 -5 -2 -5 12 0 14 2 19 5 13 2 -7 2 -19 0 -25z m-890 -25 c-3 -10
-5 -4 -5 12 0 17 2 24 5 18 2 -7 2 -21 0 -30z m210 -20 c-3 -10 -5 -4 -5 12 0
17 2 24 5 18 2 -7 2 -21 0 -30z m180 15 c-3 -8 -6 -5 -6 6 -1 11 2 17 5 13 3
-3 4 -12 1 -19z m140 0 c-3 -8 -6 -5 -6 6 -1 11 2 17 5 13 3 -3 4 -12 1 -19z
m178 4 c-3 -3 -11 0 -18 7 -9 10 -8 11 6 5 10 -3 15 -9 12 -12z m-1038 -24
c-3 -7 -5 -2 -5 12 0 14 2 19 5 13 2 -7 2 -19 0 -25z m663 22 c0 -5 -5 -10
-11 -10 -5 0 -7 5 -4 10 3 6 8 10 11 10 2 0 4 -4 4 -10z m127 -22 c-3 -7 -5
-2 -5 12 0 14 2 19 5 13 2 -7 2 -19 0 -25z m-950 0 c-3 -8 -6 -5 -6 6 -1 11 2
17 5 13 3 -3 4 -12 1 -19z m370 0 c-3 -8 -6 -5 -6 6 -1 11 2 17 5 13 3 -3 4
-12 1 -19z m213 2 c0 -11 -4 -20 -10 -20 -5 0 -10 9 -10 20 0 11 5 20 10 20 6
0 10 -9 10 -20z m-820 -26 c0 -8 -4 -12 -10 -9 -5 3 -10 13 -10 21 0 8 5 12
10 9 6 -3 10 -13 10 -21z m938 -45 c-3 -8 -7 -3 -11 10 -4 17 -3 21 5 13 5 -5
8 -16 6 -23z m-928 -9 c0 -9 -61 -42 -67 -36 -3 3 8 18 23 34 26 26 43 27 44
2z m564 -15 c3 -8 1 -15 -4 -15 -6 0 -10 7 -10 15 0 8 2 15 4 15 2 0 6 -7 10
-15z"/>
<path d="M3801 724 c0 -11 3 -14 6 -6 3 7 2 16 -1 19 -3 4 -6 -2 -5 -13z"/>
<path d="M670 550 c0 -5 5 -10 10 -10 6 0 10 5 10 10 0 6 -4 10 -10 10 -5 0
-10 -4 -10 -10z"/>
<path d="M1750 480 c-10 -6 -5 -9 18 -8 18 1 35 5 38 10 7 11 -37 10 -56 -2z"/>
<path d="M2028 483 c-10 -2 -18 -8 -18 -13 0 -13 53 -5 58 9 4 11 -8 12 -40 4z"/>
<path d="M1965 470 c-8 -13 -1 -24 14 -19 6 3 7 10 2 18 -6 10 -10 10 -16 1z"/>
<path d="M1865 440 c3 -5 8 -10 11 -10 2 0 4 5 4 10 0 6 -5 10 -11 10 -5 0 -7
-4 -4 -10z"/>
<path d="M1785 430 c-3 -5 -1 -10 4 -10 6 0 11 5 11 10 0 6 -2 10 -4 10 -3 0
-8 -4 -11 -10z"/>
<path d="M780 2581 c0 -17 2 -31 4 -31 8 0 13 51 5 56 -5 3 -9 -9 -9 -25z"/>
<path d="M4675 2440 c-4 -6 6 -10 22 -10 22 0 25 2 13 10 -19 12 -27 12 -35 0z"/>
<path d="M4348 2435 c-2 -2 -41 -5 -88 -8 -52 -3 -97 -12 -115 -22 -30 -17
-30 -17 35 -10 50 5 62 4 53 -6 -7 -7 -138 -25 -320 -45 -169 -19 -340 -41
-380 -49 -40 -8 -86 -15 -103 -15 -16 0 -30 -4 -30 -10 0 -14 103 -13 117 1 9
9 19 9 41 0 29 -12 82 -6 93 11 6 10 109 28 159 28 26 0 31 -3 20 -10 -8 -5
-33 -10 -55 -10 -22 0 -47 -5 -55 -10 -18 -12 40 -13 182 -3 79 5 96 9 87 19
-8 10 -5 14 13 18 29 7 221 29 268 31 70 3 80 5 80 16 0 8 -14 10 -40 6 -45
-6 -55 8 -12 17 71 15 222 36 262 37 25 1 56 5 70 9 15 5 -34 8 -127 8 -84 0
-154 -2 -155 -3z"/>
<path d="M3688 2373 c7 -3 16 -2 19 1 4 3 -2 6 -13 5 -11 0 -14 -3 -6 -6z"/>
<path d="M4633 2373 c20 -2 54 -2 75 0 20 2 3 4 -38 4 -41 0 -58 -2 -37 -4z"/>
<path d="M3550 2360 c0 -12 37 -12 65 0 15 7 10 9 -22 9 -24 1 -43 -3 -43 -9z"/>
<path d="M4385 2360 c-3 -5 -1 -10 4 -10 6 0 11 5 11 10 0 6 -2 10 -4 10 -3 0
-8 -4 -11 -10z"/>
<path d="M4428 2363 c7 -3 16 -2 19 1 4 3 -2 6 -13 5 -11 0 -14 -3 -6 -6z"/>
<path d="M4508 2363 c12 -2 30 -2 40 0 9 3 -1 5 -23 4 -22 0 -30 -2 -17 -4z"/>
<path d="M989 2253 l-24 -27 29 22 c15 12 32 19 37 16 5 -3 9 0 9 5 0 20 -26
11 -51 -16z"/>
<path d="M3102 2258 c-35 -6 -61 -12 -59 -14 8 -8 147 9 147 17 0 10 -1 10
-88 -3z"/>
<path d="M4275 2260 c-3 -5 -1 -10 4 -10 6 0 11 5 11 10 0 6 -2 10 -4 10 -3 0
-8 -4 -11 -10z"/>
<path d="M1045 2230 c-3 -6 1 -7 9 -4 18 7 21 14 7 14 -6 0 -13 -4 -16 -10z"/>
<path d="M4130 2209 c-11 -7 -4 -8 25 -3 50 8 58 14 19 14 -16 0 -36 -5 -44
-11z"/>
<path d="M3615 2180 c-3 -5 3 -10 14 -10 11 0 23 5 26 10 3 6 -3 10 -14 10
-11 0 -23 -4 -26 -10z"/>
<path d="M3258 2173 c7 -3 16 -2 19 1 4 3 -2 6 -13 5 -11 0 -14 -3 -6 -6z"/>
<path d="M3455 2169 c-27 -5 -72 -10 -100 -13 -27 -2 -86 -8 -130 -12 -44 -4
-89 -13 -100 -20 -11 -8 -38 -14 -60 -14 -22 0 -47 -5 -55 -11 -19 -13 44 -8
255 22 83 11 185 23 228 26 42 3 77 10 77 15 0 6 -10 8 -22 5 -12 -4 -27 -3
-32 2 -6 4 -33 4 -61 0z"/>
<path d="M895 2159 c-10 -15 3 -25 16 -12 7 7 7 13 1 17 -6 3 -14 1 -17 -5z"/>
<path d="M2955 2160 c-7 -11 9 -11 45 0 24 8 24 8 -7 9 -17 1 -35 -3 -38 -9z"/>
<path d="M1786 2142 c-2 -4 2 -18 10 -32 l13 -25 1 33 c0 29 -12 43 -24 24z"/>
<path d="M2870 2085 l-55 -13 45 -1 c54 -1 92 8 84 20 -6 10 -2 11 -74 -6z"/>
<path d="M2960 2090 c0 -5 4 -10 9 -10 6 0 13 5 16 10 3 6 -1 10 -9 10 -9 0
-16 -4 -16 -10z"/>
<path d="M1770 2080 c-13 -8 -12 -10 3 -10 9 0 17 5 17 10 0 12 -1 12 -20 0z"/>
<path d="M1670 2059 c0 -5 5 -7 10 -4 6 3 10 8 10 11 0 2 -4 4 -10 4 -5 0 -10
-5 -10 -11z"/>
<path d="M4500 750 c-9 -16 -8 -18 5 -14 8 4 15 12 15 20 0 20 -7 17 -20 -6z"/>
</g>
</svg>
